<svg width="202" height="57" viewBox="0 0 202 57" fill="none" xmlns="http://www.w3.org/2000/svg">
<rect x="1" y="1" width="200" height="55" stroke="#E5FEFE"/>
<rect x="14" y="5" width="83" height="20" fill="#FC9A08"/>
<rect x="14" y="32" width="83" height="20" fill="#01FEFB"/>
<path d="M128.527 52V44H133.543V45.0391H129.734V47.4766H133.281V48.5117H129.734V50.9609H133.589V52H128.527ZM136.394 48.4375V52H135.226V46H136.347V46.9766H136.421C136.559 46.6589 136.776 46.4036 137.07 46.2109C137.367 46.0182 137.74 45.9219 138.191 45.9219C138.6 45.9219 138.958 46.0078 139.265 46.1797C139.572 46.349 139.811 46.6016 139.98 46.9375C140.149 47.2734 140.234 47.6888 140.234 48.1836V52H139.066V48.3242C139.066 47.8893 138.953 47.5495 138.726 47.3047C138.5 47.0573 138.188 46.9336 137.793 46.9336C137.522 46.9336 137.281 46.9922 137.07 47.1094C136.862 47.2266 136.696 47.3984 136.574 47.625C136.454 47.849 136.394 48.1198 136.394 48.4375ZM144.211 52.1172C143.727 52.1172 143.295 51.9935 142.915 51.7461C142.537 51.4961 142.24 51.1406 142.024 50.6797C141.81 50.2161 141.704 49.6602 141.704 49.0117C141.704 48.3633 141.812 47.8086 142.028 47.3477C142.247 46.8867 142.546 46.5339 142.926 46.2891C143.306 46.0443 143.737 45.9219 144.219 45.9219C144.592 45.9219 144.891 45.9844 145.118 46.1094C145.347 46.2318 145.524 46.375 145.649 46.5391C145.777 46.7031 145.876 46.8477 145.946 46.9727H146.016V44H147.184V52H146.043V51.0664H145.946C145.876 51.194 145.774 51.3398 145.641 51.5039C145.511 51.668 145.331 51.8112 145.102 51.9336C144.873 52.056 144.576 52.1172 144.211 52.1172ZM144.469 51.1211C144.805 51.1211 145.089 51.0326 145.321 50.8555C145.555 50.6758 145.732 50.4271 145.852 50.1094C145.974 49.7917 146.036 49.4219 146.036 49C146.036 48.5833 145.976 48.2187 145.856 47.9062C145.736 47.5937 145.56 47.3503 145.329 47.1758C145.097 47.0013 144.81 46.9141 144.469 46.9141C144.118 46.9141 143.825 47.0052 143.59 47.1875C143.356 47.3698 143.179 47.6185 143.059 47.9336C142.942 48.2487 142.883 48.6042 142.883 49C142.883 49.401 142.943 49.7617 143.063 50.082C143.183 50.4023 143.36 50.6562 143.594 50.8437C143.831 51.0286 144.123 51.1211 144.469 51.1211ZM151.543 52.1211C150.981 52.1211 150.49 51.9922 150.071 51.7344C149.652 51.4766 149.326 51.1159 149.094 50.6523C148.862 50.1888 148.747 49.6471 148.747 49.0273C148.747 48.4049 148.862 47.8607 149.094 47.3945C149.326 46.9284 149.652 46.5664 150.071 46.3086C150.49 46.0508 150.981 45.9219 151.543 45.9219C152.106 45.9219 152.597 46.0508 153.016 46.3086C153.435 46.5664 153.761 46.9284 153.993 47.3945C154.224 47.8607 154.34 48.4049 154.34 49.0273C154.34 49.6471 154.224 50.1888 153.993 50.6523C153.761 51.1159 153.435 51.4766 153.016 51.7344C152.597 51.9922 152.106 52.1211 151.543 52.1211ZM151.547 51.1406C151.912 51.1406 152.214 51.0443 152.454 50.8516C152.693 50.6589 152.87 50.4023 152.985 50.082C153.102 49.7617 153.161 49.4089 153.161 49.0234C153.161 48.6406 153.102 48.2891 152.985 47.9687C152.87 47.6458 152.693 47.3867 152.454 47.1914C152.214 46.9961 151.912 46.8984 151.547 46.8984C151.18 46.8984 150.875 46.9961 150.633 47.1914C150.394 47.3867 150.215 47.6458 150.098 47.9687C149.984 48.2891 149.926 48.6406 149.926 49.0234C149.926 49.4089 149.984 49.7617 150.098 50.082C150.215 50.4023 150.394 50.6589 150.633 50.8516C150.875 51.0443 151.18 51.1406 151.547 51.1406ZM158.055 52.1172C157.571 52.1172 157.138 51.9935 156.758 51.7461C156.381 51.4961 156.084 51.1406 155.868 50.6797C155.654 50.2161 155.547 49.6602 155.547 49.0117C155.547 48.3633 155.655 47.8086 155.872 47.3477C156.09 46.8867 156.39 46.5339 156.77 46.2891C157.15 46.0443 157.581 45.9219 158.063 45.9219C158.435 45.9219 158.735 45.9844 158.961 46.1094C159.191 46.2318 159.368 46.375 159.493 46.5391C159.62 46.7031 159.719 46.8477 159.789 46.9727H159.86V44H161.028V52H159.887V51.0664H159.789C159.719 51.194 159.618 51.3398 159.485 51.5039C159.355 51.668 159.175 51.8112 158.946 51.9336C158.717 52.056 158.42 52.1172 158.055 52.1172ZM158.313 51.1211C158.649 51.1211 158.933 51.0326 159.164 50.8555C159.399 50.6758 159.576 50.4271 159.696 50.1094C159.818 49.7917 159.879 49.4219 159.879 49C159.879 48.5833 159.819 48.2187 159.7 47.9062C159.58 47.5937 159.404 47.3503 159.172 47.1758C158.941 47.0013 158.654 46.9141 158.313 46.9141C157.961 46.9141 157.668 47.0052 157.434 47.1875C157.2 47.3698 157.023 47.6185 156.903 47.9336C156.786 48.2487 156.727 48.6042 156.727 49C156.727 49.401 156.787 49.7617 156.907 50.082C157.026 50.4023 157.204 50.6562 157.438 50.8437C157.675 51.0286 157.967 51.1211 158.313 51.1211ZM165.387 52.1211C164.825 52.1211 164.334 51.9922 163.914 51.7344C163.495 51.4766 163.17 51.1159 162.938 50.6523C162.706 50.1888 162.59 49.6471 162.59 49.0273C162.59 48.4049 162.706 47.8607 162.938 47.3945C163.17 46.9284 163.495 46.5664 163.914 46.3086C164.334 46.0508 164.825 45.9219 165.387 45.9219C165.95 45.9219 166.44 46.0508 166.86 46.3086C167.279 46.5664 167.605 46.9284 167.836 47.3945C168.068 47.8607 168.184 48.4049 168.184 49.0273C168.184 49.6471 168.068 50.1888 167.836 50.6523C167.605 51.1159 167.279 51.4766 166.86 51.7344C166.44 51.9922 165.95 52.1211 165.387 52.1211ZM165.391 51.1406C165.756 51.1406 166.058 51.0443 166.297 50.8516C166.537 50.6589 166.714 50.4023 166.829 50.082C166.946 49.7617 167.004 49.4089 167.004 49.0234C167.004 48.6406 166.946 48.2891 166.829 47.9687C166.714 47.6458 166.537 47.3867 166.297 47.1914C166.058 46.9961 165.756 46.8984 165.391 46.8984C165.024 46.8984 164.719 46.9961 164.477 47.1914C164.237 47.3867 164.059 47.6458 163.942 47.9687C163.827 48.2891 163.77 48.6406 163.77 49.0234C163.77 49.4089 163.827 49.7617 163.942 50.082C164.059 50.4023 164.237 50.6589 164.477 50.8516C164.719 51.0443 165.024 51.1406 165.391 51.1406ZM170.821 48.4375V52H169.653V46H170.774V46.9766H170.848C170.986 46.6589 171.202 46.4036 171.496 46.2109C171.793 46.0182 172.167 45.9219 172.618 45.9219C173.026 45.9219 173.384 46.0078 173.692 46.1797C173.999 46.349 174.237 46.6016 174.407 46.9375C174.576 47.2734 174.661 47.6888 174.661 48.1836V52H173.493V48.3242C173.493 47.8893 173.379 47.5495 173.153 47.3047C172.926 47.0573 172.615 46.9336 172.219 46.9336C171.948 46.9336 171.707 46.9922 171.496 47.1094C171.288 47.2266 171.123 47.3984 171 47.625C170.881 47.849 170.821 48.1198 170.821 48.4375ZM179.193 46V46.9375H175.915V46H179.193ZM176.794 44.5625H177.962V50.2383C177.962 50.4648 177.996 50.6354 178.064 50.75C178.131 50.862 178.219 50.9388 178.326 50.9805C178.435 51.0195 178.553 51.0391 178.681 51.0391C178.775 51.0391 178.857 51.0326 178.927 51.0195C178.997 51.0065 179.052 50.9961 179.091 50.9883L179.302 51.9531C179.234 51.9792 179.138 52.0052 179.013 52.0313C178.888 52.0599 178.732 52.0755 178.544 52.0781C178.237 52.0833 177.951 52.0286 177.685 51.9141C177.419 51.7995 177.204 51.6224 177.04 51.3828C176.876 51.1432 176.794 50.8424 176.794 50.4805V44.5625ZM180.65 52V46H181.818V52H180.65ZM181.24 45.0742C181.036 45.0742 180.862 45.0065 180.716 44.8711C180.573 44.7331 180.501 44.569 180.501 44.3789C180.501 44.1862 180.573 44.0221 180.716 43.8867C180.862 43.7487 181.036 43.6797 181.24 43.6797C181.443 43.6797 181.616 43.7487 181.759 43.8867C181.905 44.0221 181.978 44.1862 181.978 44.3789C181.978 44.569 181.905 44.7331 181.759 44.8711C181.616 45.0065 181.443 45.0742 181.24 45.0742ZM185.3 52.1328C184.92 52.1328 184.576 52.0625 184.269 51.9219C183.961 51.7786 183.718 51.5716 183.538 51.3008C183.361 51.0299 183.273 50.6979 183.273 50.3047C183.273 49.9661 183.338 49.6875 183.468 49.4687C183.598 49.25 183.774 49.0768 183.995 48.9492C184.217 48.8216 184.464 48.7253 184.738 48.6602C185.011 48.5951 185.29 48.5456 185.573 48.5117C185.933 48.4701 186.225 48.4362 186.448 48.4102C186.672 48.3815 186.835 48.3359 186.937 48.2734C187.038 48.2109 187.089 48.1094 187.089 47.9687V47.9414C187.089 47.6003 186.993 47.3359 186.8 47.1484C186.61 46.9609 186.326 46.8672 185.948 46.8672C185.555 46.8672 185.245 46.9544 185.019 47.1289C184.795 47.3008 184.64 47.4922 184.554 47.7031L183.456 47.4531C183.586 47.0885 183.777 46.7943 184.027 46.5703C184.279 46.3437 184.57 46.1797 184.898 46.0781C185.226 45.974 185.571 45.9219 185.933 45.9219C186.172 45.9219 186.426 45.9505 186.695 46.0078C186.965 46.0625 187.218 46.1641 187.452 46.3125C187.689 46.4609 187.883 46.6732 188.034 46.9492C188.185 47.2227 188.261 47.5781 188.261 48.0156V52H187.12V51.1797H187.073C186.998 51.3307 186.885 51.4792 186.734 51.625C186.583 51.7708 186.389 51.8919 186.152 51.9883C185.915 52.0846 185.631 52.1328 185.3 52.1328ZM185.554 51.1953C185.877 51.1953 186.153 51.1315 186.382 51.0039C186.614 50.8763 186.79 50.7096 186.909 50.5039C187.032 50.2956 187.093 50.0729 187.093 49.8359V49.0625C187.051 49.1042 186.971 49.1432 186.851 49.1797C186.734 49.2135 186.6 49.2435 186.448 49.2695C186.297 49.293 186.15 49.3151 186.007 49.3359C185.864 49.3542 185.744 49.3698 185.648 49.3828C185.421 49.4115 185.214 49.4596 185.027 49.5273C184.842 49.5951 184.693 49.6927 184.581 49.8203C184.472 49.9453 184.417 50.112 184.417 50.3203C184.417 50.6094 184.524 50.8281 184.738 50.9766C184.951 51.1224 185.223 51.1953 185.554 51.1953Z" fill="#2A2A2A"/>
<rect x="41.972" y="11" width="145.81" height="30" fill="#FDFD06"/>
<path d="M54.6946 31C54.3984 31 54.2503 30.8413 54.2503 30.5239V22.3735C54.2503 22.0562 54.3984 21.8975 54.6946 21.8975H56.9099C58.8566 21.8975 60.1726 22.291 60.8582 23.0781C61.548 23.8652 61.8929 24.9845 61.8929 26.436C61.8929 27.8875 61.548 29.0111 60.8582 29.8066C60.1726 30.6022 58.8566 31 56.9099 31H54.6946ZM56.1038 29.4258H56.7893C58.1012 29.4258 58.9497 29.1825 59.3347 28.6958C59.7198 28.2049 59.9124 27.4517 59.9124 26.436C59.9124 25.4204 59.7198 24.6714 59.3347 24.189C58.9497 23.7023 58.1012 23.459 56.7893 23.459H56.1038V29.4258ZM63.6829 31C63.429 31 63.302 30.873 63.302 30.6191V24.7158C63.302 24.4619 63.429 24.335 63.6829 24.335H64.6858C64.9397 24.335 65.0667 24.4619 65.0667 24.7158V25.2363H65.0921C65.2021 24.9655 65.3862 24.7264 65.6443 24.519C65.9025 24.3117 66.2071 24.208 66.5584 24.208C66.7996 24.208 66.9985 24.2376 67.1551 24.2969C67.3032 24.3519 67.3603 24.4535 67.3264 24.6016L67.1487 25.3569C67.1106 25.5262 66.9964 25.577 66.8059 25.5093C66.6959 25.4712 66.5901 25.4521 66.4886 25.4521C66.0823 25.4521 65.7459 25.6955 65.4793 26.1821C65.2127 26.6688 65.0794 27.3776 65.0794 28.3086V30.6191C65.0794 30.873 64.9524 31 64.6985 31H63.6829ZM67.6057 31C67.3095 31 67.1614 30.8413 67.1614 30.5239V29.6733C67.1614 29.356 67.3095 29.1973 67.6057 29.1973H68.5706C68.8668 29.1973 69.0149 29.356 69.0149 29.6733V30.5239C69.0149 30.8413 68.8668 31 68.5706 31H67.6057ZM76.1116 31C75.8154 31 75.6673 30.8413 75.6673 30.5239V22.3735C75.6673 22.0562 75.8154 21.8975 76.1116 21.8975H79.0506C80.3582 21.8975 81.3124 22.1006 81.9134 22.5068C82.5143 22.9089 82.8147 23.5648 82.8147 24.4746C82.8147 25.1517 82.5714 25.6912 82.0847 26.0933C81.5981 26.4953 80.9803 26.7619 80.2312 26.8931V26.9058C80.6375 27.0581 80.9443 27.2697 81.1516 27.5405C81.359 27.8114 81.5283 28.0483 81.6595 28.2515L83.0559 30.4541C83.2887 30.818 83.2083 31 82.8147 31H81.7102C81.4775 31 81.2871 30.8752 81.1389 30.6255L79.8567 28.4863C79.7171 28.2578 79.461 28.0081 79.0887 27.7373C78.7205 27.4622 78.3544 27.3247 77.9905 27.3247H77.5208V30.5239C77.5208 30.8413 77.3727 31 77.0764 31H76.1116ZM77.5208 25.7505H78.657C79.5034 25.7505 80.1043 25.6553 80.4597 25.4648C80.8194 25.2702 80.9993 24.9634 80.9993 24.5444C80.9993 24.0874 80.8258 23.7912 80.4788 23.6558C80.136 23.5161 79.6303 23.4463 78.9617 23.4463H77.5208V25.7505ZM85.1761 31C84.8798 31 84.7317 30.8413 84.7317 30.5239V22.3735C84.7317 22.0562 84.8798 21.8975 85.1761 21.8975H90.6223C90.9397 21.8975 91.0984 22.035 91.0984 22.3101V23.0591C91.0984 23.3341 90.9397 23.4717 90.6223 23.4717H86.5852V25.4902H90.2859C90.6033 25.4902 90.762 25.6278 90.762 25.9028V26.6519C90.762 26.9269 90.6033 27.0645 90.2859 27.0645H86.5852V29.4258H90.8255C91.1429 29.4258 91.3015 29.5633 91.3015 29.8384V30.5874C91.3015 30.8625 91.1429 31 90.8255 31H85.1761ZM93.3011 31C93.0048 31 92.8567 30.8413 92.8567 30.5239V22.3735C92.8567 22.0562 93.0048 21.8975 93.3011 21.8975H94.2405C94.6044 21.8975 94.8795 22.0456 95.0657 22.3418L98.303 27.5405H98.3474C98.3263 27.2866 98.3157 27.0327 98.3157 26.7788V22.3735C98.3157 22.0562 98.4638 21.8975 98.76 21.8975H99.7249C100.021 21.8975 100.169 22.0562 100.169 22.3735V30.5239C100.169 30.8413 100.021 31 99.7249 31H98.8489C98.485 31 98.2099 30.8519 98.0237 30.5557L94.7229 25.2617H94.6785C94.6997 25.5156 94.7102 25.7695 94.7102 26.0234V30.5239C94.7102 30.8413 94.5621 31 94.2659 31H93.3011ZM101.915 31C101.61 31 101.511 30.8604 101.616 30.5811L104.727 22.4116C104.858 22.0688 105.057 21.8975 105.324 21.8975H106.212C106.479 21.8975 106.678 22.0688 106.809 22.4116L109.919 30.5811C110.025 30.8604 109.926 31 109.621 31H108.612C108.332 31 108.138 30.854 108.028 30.562L107.38 28.8545H104.156L103.508 30.562C103.398 30.854 103.203 31 102.924 31H101.915ZM104.746 27.2803H106.79L106.009 25.2617C105.916 25.0247 105.859 24.8534 105.838 24.7476C105.821 24.6375 105.802 24.4767 105.781 24.2651H105.755C105.734 24.4767 105.713 24.6375 105.692 24.7476C105.675 24.8534 105.62 25.0247 105.527 25.2617L104.746 27.2803ZM109.621 23.5225C109.303 23.5225 109.145 23.3849 109.145 23.1099V22.3101C109.145 22.035 109.303 21.8975 109.621 21.8975H116.146C116.464 21.8975 116.622 22.035 116.622 22.3101V23.1099C116.622 23.3849 116.464 23.5225 116.146 23.5225H113.81V30.6509C113.81 30.8836 113.705 31 113.493 31H112.274C112.063 31 111.957 30.8836 111.957 30.6509V23.5225H109.621ZM117.384 26.4487C117.384 24.9888 117.761 23.8293 118.514 22.9702C119.267 22.1112 120.342 21.6816 121.739 21.6816C123.135 21.6816 124.21 22.1112 124.963 22.9702C125.716 23.8293 126.093 24.9888 126.093 26.4487C126.093 27.9087 125.716 29.0682 124.963 29.9272C124.21 30.7863 123.135 31.2158 121.739 31.2158C120.342 31.2158 119.267 30.7863 118.514 29.9272C117.761 29.0682 117.384 27.9087 117.384 26.4487ZM119.365 26.4487C119.365 27.5067 119.553 28.3171 119.929 28.8799C120.31 29.4385 120.913 29.7178 121.739 29.7178C122.564 29.7178 123.165 29.4385 123.541 28.8799C123.922 28.3171 124.113 27.5067 124.113 26.4487C124.113 25.3908 123.922 24.5825 123.541 24.0239C123.165 23.4611 122.564 23.1797 121.739 23.1797C120.913 23.1797 120.31 23.4611 119.929 24.0239C119.553 24.5825 119.365 25.3908 119.365 26.4487ZM132.542 31C132.246 31 132.098 30.8413 132.098 30.5239V22.3735C132.098 22.0562 132.246 21.8975 132.542 21.8975H134.383C134.629 21.8975 134.804 22.0667 134.91 22.4053L136.63 27.9722C136.706 28.2134 136.759 28.4123 136.789 28.5688C136.818 28.7212 136.844 28.9032 136.865 29.1147H136.903C136.924 28.9032 136.95 28.7212 136.979 28.5688C137.009 28.4123 137.062 28.2134 137.138 27.9722L138.858 22.4053C138.964 22.0667 139.14 21.8975 139.385 21.8975H141.226C141.522 21.8975 141.67 22.0562 141.67 22.3735V30.5239C141.67 30.8413 141.522 31 141.226 31H140.261C139.965 31 139.817 30.8413 139.817 30.5239V25.2808C139.817 25.0269 139.827 24.7729 139.848 24.519H139.804L137.97 30.4858C137.864 30.8286 137.682 31 137.424 31H136.345C136.086 31 135.904 30.8286 135.799 30.4858L133.964 24.519H133.92C133.941 24.7729 133.951 25.0269 133.951 25.2808V30.5239C133.951 30.8413 133.803 31 133.507 31H132.542ZM143.416 31C143.111 31 143.012 30.8604 143.117 30.5811L146.228 22.4116C146.359 22.0688 146.558 21.8975 146.824 21.8975H147.713C147.98 21.8975 148.179 22.0688 148.31 22.4116L151.42 30.5811C151.526 30.8604 151.427 31 151.122 31H150.113C149.833 31 149.639 30.854 149.529 30.562L148.881 28.8545H145.657L145.009 30.562C144.899 30.854 144.704 31 144.425 31H143.416ZM146.247 27.2803H148.291L147.51 25.2617C147.417 25.0247 147.36 24.8534 147.339 24.7476C147.322 24.6375 147.303 24.4767 147.282 24.2651H147.256C147.235 24.4767 147.214 24.6375 147.193 24.7476C147.176 24.8534 147.121 25.0247 147.028 25.2617L146.247 27.2803ZM152.994 31C152.698 31 152.55 30.8413 152.55 30.5239V22.3735C152.55 22.0562 152.698 21.8975 152.994 21.8975H155.933C157.241 21.8975 158.195 22.1006 158.796 22.5068C159.397 22.9089 159.698 23.5648 159.698 24.4746C159.698 25.1517 159.454 25.6912 158.968 26.0933C158.481 26.4953 157.863 26.7619 157.114 26.8931V26.9058C157.52 27.0581 157.827 27.2697 158.034 27.5405C158.242 27.8114 158.411 28.0483 158.542 28.2515L159.939 30.4541C160.171 30.818 160.091 31 159.698 31H158.593C158.36 31 158.17 30.8752 158.022 30.6255L156.74 28.4863C156.6 28.2578 156.344 28.0081 155.971 27.7373C155.603 27.4622 155.237 27.3247 154.873 27.3247H154.404V30.5239C154.404 30.8413 154.255 31 153.959 31H152.994ZM154.404 25.7505H155.54C156.386 25.7505 156.987 25.6553 157.343 25.4648C157.702 25.2702 157.882 24.9634 157.882 24.5444C157.882 24.0874 157.709 23.7912 157.362 23.6558C157.019 23.5161 156.513 23.4463 155.845 23.4463H154.404V25.7505ZM161.615 27.2104V22.2466C161.615 22.0138 161.763 21.8975 162.059 21.8975H163.024C163.32 21.8975 163.468 22.0138 163.468 22.2466V27.147C163.468 28.2896 163.635 29.0047 163.97 29.2925C164.308 29.576 164.689 29.7178 165.112 29.7178C165.535 29.7178 165.914 29.576 166.248 29.2925C166.587 29.0047 166.756 28.2896 166.756 27.147V22.2466C166.756 22.0138 166.904 21.8975 167.2 21.8975H168.165C168.462 21.8975 168.61 22.0138 168.61 22.2466V27.2104C168.61 28.6916 168.296 29.7305 167.67 30.3271C167.044 30.9196 166.191 31.2158 165.112 31.2158C164.033 31.2158 163.18 30.9196 162.554 30.3271C161.928 29.7305 161.615 28.6916 161.615 27.2104ZM171.085 31C170.789 31 170.641 30.8413 170.641 30.5239V22.3735C170.641 22.0562 170.789 21.8975 171.085 21.8975H172.05C172.346 21.8975 172.494 22.0562 172.494 22.3735V30.5239C172.494 30.8413 172.346 31 172.05 31H171.085Z" fill="#0E1000"/>
</svg>
