<svg width="181" height="56" viewBox="0 0 181 56" fill="none" xmlns="http://www.w3.org/2000/svg">
<rect x="1" y="1" width="179" height="54" stroke="#E5FEFE"/>
<rect x="4" y="5" width="83" height="20" fill="#FC9A08"/>
<rect x="4" y="32" width="83" height="20" fill="#01FEFB"/>
<path d="M118.527 52V44H123.543V45.0391H119.734V47.4766H123.281V48.5117H119.734V50.9609H123.589V52H118.527ZM126.394 48.4375V52H125.226V46H126.347V46.9766H126.421C126.559 46.6589 126.776 46.4036 127.07 46.2109C127.367 46.0182 127.74 45.9219 128.191 45.9219C128.6 45.9219 128.958 46.0078 129.265 46.1797C129.573 46.349 129.811 46.6016 129.98 46.9375C130.149 47.2734 130.234 47.6888 130.234 48.1836V52H129.066V48.3242C129.066 47.8893 128.953 47.5495 128.726 47.3047C128.5 47.0573 128.188 46.9336 127.793 46.9336C127.522 46.9336 127.281 46.9922 127.07 47.1094C126.862 47.2266 126.696 47.3984 126.574 47.625C126.454 47.849 126.394 48.1198 126.394 48.4375ZM134.211 52.1172C133.727 52.1172 133.295 51.9935 132.915 51.7461C132.537 51.4961 132.24 51.1406 132.024 50.6797C131.81 50.2161 131.704 49.6602 131.704 49.0117C131.704 48.3633 131.812 47.8086 132.028 47.3477C132.247 46.8867 132.546 46.5339 132.926 46.2891C133.307 46.0443 133.738 45.9219 134.219 45.9219C134.592 45.9219 134.891 45.9844 135.118 46.1094C135.347 46.2318 135.524 46.375 135.649 46.5391C135.777 46.7031 135.876 46.8477 135.946 46.9727H136.016V44H137.184V52H136.044V51.0664H135.946C135.876 51.194 135.774 51.3398 135.641 51.5039C135.511 51.668 135.331 51.8112 135.102 51.9336C134.873 52.056 134.576 52.1172 134.211 52.1172ZM134.469 51.1211C134.805 51.1211 135.089 51.0326 135.321 50.8555C135.555 50.6758 135.732 50.4271 135.852 50.1094C135.974 49.7917 136.036 49.4219 136.036 49C136.036 48.5833 135.976 48.2187 135.856 47.9062C135.736 47.5937 135.56 47.3503 135.329 47.1758C135.097 47.0013 134.81 46.9141 134.469 46.9141C134.118 46.9141 133.825 47.0052 133.59 47.1875C133.356 47.3698 133.179 47.6185 133.059 47.9336C132.942 48.2487 132.883 48.6042 132.883 49C132.883 49.401 132.943 49.7617 133.063 50.082C133.183 50.4023 133.36 50.6562 133.594 50.8437C133.831 51.0286 134.123 51.1211 134.469 51.1211ZM141.543 52.1211C140.981 52.1211 140.49 51.9922 140.071 51.7344C139.652 51.4766 139.326 51.1159 139.094 50.6523C138.862 50.1888 138.747 49.6471 138.747 49.0273C138.747 48.4049 138.862 47.8607 139.094 47.3945C139.326 46.9284 139.652 46.5664 140.071 46.3086C140.49 46.0508 140.981 45.9219 141.543 45.9219C142.106 45.9219 142.597 46.0508 143.016 46.3086C143.435 46.5664 143.761 46.9284 143.993 47.3945C144.224 47.8607 144.34 48.4049 144.34 49.0273C144.34 49.6471 144.224 50.1888 143.993 50.6523C143.761 51.1159 143.435 51.4766 143.016 51.7344C142.597 51.9922 142.106 52.1211 141.543 52.1211ZM141.547 51.1406C141.912 51.1406 142.214 51.0443 142.454 50.8516C142.693 50.6589 142.87 50.4023 142.985 50.082C143.102 49.7617 143.161 49.4089 143.161 49.0234C143.161 48.6406 143.102 48.2891 142.985 47.9687C142.87 47.6458 142.693 47.3867 142.454 47.1914C142.214 46.9961 141.912 46.8984 141.547 46.8984C141.18 46.8984 140.875 46.9961 140.633 47.1914C140.394 47.3867 140.215 47.6458 140.098 47.9687C139.984 48.2891 139.926 48.6406 139.926 49.0234C139.926 49.4089 139.984 49.7617 140.098 50.082C140.215 50.4023 140.394 50.6589 140.633 50.8516C140.875 51.0443 141.18 51.1406 141.547 51.1406ZM148.055 52.1172C147.571 52.1172 147.138 51.9935 146.758 51.7461C146.381 51.4961 146.084 51.1406 145.868 50.6797C145.654 50.2161 145.547 49.6602 145.547 49.0117C145.547 48.3633 145.655 47.8086 145.872 47.3477C146.09 46.8867 146.39 46.5339 146.77 46.2891C147.15 46.0443 147.581 45.9219 148.063 45.9219C148.435 45.9219 148.735 45.9844 148.961 46.1094C149.191 46.2318 149.368 46.375 149.493 46.5391C149.62 46.7031 149.719 46.8477 149.79 46.9727H149.86V44H151.028V52H149.887V51.0664H149.79C149.719 51.194 149.618 51.3398 149.485 51.5039C149.355 51.668 149.175 51.8112 148.946 51.9336C148.717 52.056 148.42 52.1172 148.055 52.1172ZM148.313 51.1211C148.649 51.1211 148.933 51.0326 149.165 50.8555C149.399 50.6758 149.576 50.4271 149.696 50.1094C149.818 49.7917 149.879 49.4219 149.879 49C149.879 48.5833 149.819 48.2187 149.7 47.9062C149.58 47.5937 149.404 47.3503 149.172 47.1758C148.941 47.0013 148.654 46.9141 148.313 46.9141C147.961 46.9141 147.668 47.0052 147.434 47.1875C147.2 47.3698 147.023 47.6185 146.903 47.9336C146.786 48.2487 146.727 48.6042 146.727 49C146.727 49.401 146.787 49.7617 146.907 50.082C147.026 50.4023 147.204 50.6562 147.438 50.8437C147.675 51.0286 147.967 51.1211 148.313 51.1211ZM155.387 52.1211C154.825 52.1211 154.334 51.9922 153.914 51.7344C153.495 51.4766 153.17 51.1159 152.938 50.6523C152.706 50.1888 152.59 49.6471 152.59 49.0273C152.59 48.4049 152.706 47.8607 152.938 47.3945C153.17 46.9284 153.495 46.5664 153.914 46.3086C154.334 46.0508 154.825 45.9219 155.387 45.9219C155.95 45.9219 156.441 46.0508 156.86 46.3086C157.279 46.5664 157.605 46.9284 157.836 47.3945C158.068 47.8607 158.184 48.4049 158.184 49.0273C158.184 49.6471 158.068 50.1888 157.836 50.6523C157.605 51.1159 157.279 51.4766 156.86 51.7344C156.441 51.9922 155.95 52.1211 155.387 52.1211ZM155.391 51.1406C155.756 51.1406 156.058 51.0443 156.297 50.8516C156.537 50.6589 156.714 50.4023 156.829 50.082C156.946 49.7617 157.004 49.4089 157.004 49.0234C157.004 48.6406 156.946 48.2891 156.829 47.9687C156.714 47.6458 156.537 47.3867 156.297 47.1914C156.058 46.9961 155.756 46.8984 155.391 46.8984C155.024 46.8984 154.719 46.9961 154.477 47.1914C154.237 47.3867 154.059 47.6458 153.942 47.9687C153.827 48.2891 153.77 48.6406 153.77 49.0234C153.77 49.4089 153.827 49.7617 153.942 50.082C154.059 50.4023 154.237 50.6589 154.477 50.8516C154.719 51.0443 155.024 51.1406 155.391 51.1406ZM160.821 48.4375V52H159.653V46H160.774V46.9766H160.848C160.986 46.6589 161.202 46.4036 161.496 46.2109C161.793 46.0182 162.167 45.9219 162.618 45.9219C163.026 45.9219 163.384 46.0078 163.692 46.1797C163.999 46.349 164.237 46.6016 164.407 46.9375C164.576 47.2734 164.661 47.6888 164.661 48.1836V52H163.493V48.3242C163.493 47.8893 163.379 47.5495 163.153 47.3047C162.926 47.0573 162.615 46.9336 162.219 46.9336C161.948 46.9336 161.707 46.9922 161.496 47.1094C161.288 47.2266 161.123 47.3984 161 47.625C160.881 47.849 160.821 48.1198 160.821 48.4375ZM169.193 46V46.9375H165.915V46H169.193ZM166.794 44.5625H167.962V50.2383C167.962 50.4648 167.996 50.6354 168.064 50.75C168.132 50.862 168.219 50.9388 168.326 50.9805C168.435 51.0195 168.553 51.0391 168.681 51.0391C168.775 51.0391 168.857 51.0326 168.927 51.0195C168.997 51.0065 169.052 50.9961 169.091 50.9883L169.302 51.9531C169.234 51.9792 169.138 52.0052 169.013 52.0313C168.888 52.0599 168.732 52.0755 168.544 52.0781C168.237 52.0833 167.951 52.0286 167.685 51.9141C167.419 51.7995 167.204 51.6224 167.04 51.3828C166.876 51.1432 166.794 50.8424 166.794 50.4805V44.5625ZM170.65 52V46H171.818V52H170.65ZM171.24 45.0742C171.036 45.0742 170.862 45.0065 170.716 44.8711C170.573 44.7331 170.501 44.569 170.501 44.3789C170.501 44.1862 170.573 44.0221 170.716 43.8867C170.862 43.7487 171.036 43.6797 171.24 43.6797C171.443 43.6797 171.616 43.7487 171.759 43.8867C171.905 44.0221 171.978 44.1862 171.978 44.3789C171.978 44.569 171.905 44.7331 171.759 44.8711C171.616 45.0065 171.443 45.0742 171.24 45.0742ZM175.3 52.1328C174.92 52.1328 174.576 52.0625 174.269 51.9219C173.962 51.7786 173.718 51.5716 173.538 51.3008C173.361 51.0299 173.273 50.6979 173.273 50.3047C173.273 49.9661 173.338 49.6875 173.468 49.4687C173.598 49.25 173.774 49.0768 173.995 48.9492C174.217 48.8216 174.464 48.7253 174.738 48.6602C175.011 48.5951 175.29 48.5456 175.574 48.5117C175.933 48.4701 176.225 48.4362 176.449 48.4102C176.672 48.3815 176.835 48.3359 176.937 48.2734C177.038 48.2109 177.089 48.1094 177.089 47.9687V47.9414C177.089 47.6003 176.993 47.3359 176.8 47.1484C176.61 46.9609 176.326 46.8672 175.949 46.8672C175.555 46.8672 175.245 46.9544 175.019 47.1289C174.795 47.3008 174.64 47.4922 174.554 47.7031L173.456 47.4531C173.587 47.0885 173.777 46.7943 174.027 46.5703C174.279 46.3437 174.57 46.1797 174.898 46.0781C175.226 45.974 175.571 45.9219 175.933 45.9219C176.172 45.9219 176.426 45.9505 176.695 46.0078C176.965 46.0625 177.218 46.1641 177.452 46.3125C177.689 46.4609 177.883 46.6732 178.034 46.9492C178.185 47.2227 178.261 47.5781 178.261 48.0156V52H177.12V51.1797H177.074C176.998 51.3307 176.885 51.4792 176.734 51.625C176.583 51.7708 176.389 51.8919 176.152 51.9883C175.915 52.0846 175.631 52.1328 175.3 52.1328ZM175.554 51.1953C175.877 51.1953 176.153 51.1315 176.382 51.0039C176.614 50.8763 176.79 50.7096 176.909 50.5039C177.032 50.2956 177.093 50.0729 177.093 49.8359V49.0625C177.051 49.1042 176.971 49.1432 176.851 49.1797C176.734 49.2135 176.6 49.2435 176.449 49.2695C176.297 49.293 176.15 49.3151 176.007 49.3359C175.864 49.3542 175.744 49.3698 175.648 49.3828C175.421 49.4115 175.214 49.4596 175.027 49.5273C174.842 49.5951 174.693 49.6927 174.581 49.8203C174.472 49.9453 174.417 50.112 174.417 50.3203C174.417 50.6094 174.524 50.8281 174.738 50.9766C174.951 51.1224 175.223 51.1953 175.554 51.1953Z" fill="#2A2A2A"/>
<rect x="31.972" y="11" width="145.81" height="30" fill="#FDFD06"/>
<path d="M44.6946 31C44.3984 31 44.2502 30.8413 44.2502 30.5239V22.3735C44.2502 22.0562 44.3984 21.8975 44.6946 21.8975H46.9099C48.8565 21.8975 50.1726 22.291 50.8582 23.0781C51.5479 23.8652 51.8928 24.9845 51.8928 26.436C51.8928 27.8875 51.5479 29.0111 50.8582 29.8066C50.1726 30.6022 48.8565 31 46.9099 31H44.6946ZM46.1038 29.4258H46.7893C48.1012 29.4258 48.9496 29.1825 49.3347 28.6958C49.7198 28.2049 49.9124 27.4517 49.9124 26.436C49.9124 25.4204 49.7198 24.6714 49.3347 24.189C48.9496 23.7023 48.1012 23.459 46.7893 23.459H46.1038V29.4258ZM53.6829 31C53.429 31 53.302 30.873 53.302 30.6191V24.7158C53.302 24.4619 53.429 24.335 53.6829 24.335H54.6858C54.9397 24.335 55.0667 24.4619 55.0667 24.7158V25.2363H55.092C55.2021 24.9655 55.3861 24.7264 55.6443 24.519C55.9024 24.3117 56.2071 24.208 56.5583 24.208C56.7996 24.208 56.9985 24.2376 57.155 24.2969C57.3031 24.3519 57.3603 24.4535 57.3264 24.6016L57.1487 25.3569C57.1106 25.5262 56.9963 25.577 56.8059 25.5093C56.6959 25.4712 56.5901 25.4521 56.4885 25.4521C56.0823 25.4521 55.7458 25.6955 55.4792 26.1821C55.2126 26.6688 55.0793 27.3776 55.0793 28.3086V30.6191C55.0793 30.873 54.9524 31 54.6985 31H53.6829ZM57.6057 31C57.3095 31 57.1614 30.8413 57.1614 30.5239V29.6733C57.1614 29.356 57.3095 29.1973 57.6057 29.1973H58.5706C58.8668 29.1973 59.0149 29.356 59.0149 29.6733V30.5239C59.0149 30.8413 58.8668 31 58.5706 31H57.6057ZM66.1116 31C65.8153 31 65.6672 30.8413 65.6672 30.5239V22.3735C65.6672 22.0562 65.8153 21.8975 66.1116 21.8975H69.0505C70.3582 21.8975 71.3124 22.1006 71.9133 22.5068C72.5142 22.9089 72.8147 23.5648 72.8147 24.4746C72.8147 25.1517 72.5714 25.6912 72.0847 26.0933C71.5981 26.4953 70.9802 26.7619 70.2312 26.8931V26.9058C70.6375 27.0581 70.9443 27.2697 71.1516 27.5405C71.359 27.8114 71.5282 28.0483 71.6594 28.2515L73.0559 30.4541C73.2887 30.818 73.2083 31 72.8147 31H71.7102C71.4775 31 71.287 30.8752 71.1389 30.6255L69.8567 28.4863C69.717 28.2578 69.461 28.0081 69.0886 27.7373C68.7205 27.4622 68.3544 27.3247 67.9905 27.3247H67.5208V30.5239C67.5208 30.8413 67.3726 31 67.0764 31H66.1116ZM67.5208 25.7505H68.657C69.5033 25.7505 70.1042 25.6553 70.4597 25.4648C70.8194 25.2702 70.9993 24.9634 70.9993 24.5444C70.9993 24.0874 70.8258 23.7912 70.4788 23.6558C70.136 23.5161 69.6303 23.4463 68.9617 23.4463H67.5208V25.7505ZM75.176 31C74.8798 31 74.7317 30.8413 74.7317 30.5239V22.3735C74.7317 22.0562 74.8798 21.8975 75.176 21.8975H80.6223C80.9397 21.8975 81.0984 22.035 81.0984 22.3101V23.0591C81.0984 23.3341 80.9397 23.4717 80.6223 23.4717H76.5852V25.4902H80.2859C80.6033 25.4902 80.762 25.6278 80.762 25.9028V26.6519C80.762 26.9269 80.6033 27.0645 80.2859 27.0645H76.5852V29.4258H80.8254C81.1428 29.4258 81.3015 29.5633 81.3015 29.8384V30.5874C81.3015 30.8625 81.1428 31 80.8254 31H75.176ZM83.301 31C83.0048 31 82.8567 30.8413 82.8567 30.5239V22.3735C82.8567 22.0562 83.0048 21.8975 83.301 21.8975H84.2405C84.6044 21.8975 84.8795 22.0456 85.0657 22.3418L88.303 27.5405H88.3474C88.3263 27.2866 88.3157 27.0327 88.3157 26.7788V22.3735C88.3157 22.0562 88.4638 21.8975 88.76 21.8975H89.7249C90.0211 21.8975 90.1692 22.0562 90.1692 22.3735V30.5239C90.1692 30.8413 90.0211 31 89.7249 31H88.8489C88.4849 31 88.2099 30.8519 88.0237 30.5557L84.7229 25.2617H84.6785C84.6996 25.5156 84.7102 25.7695 84.7102 26.0234V30.5239C84.7102 30.8413 84.5621 31 84.2659 31H83.301ZM91.9148 31C91.6101 31 91.5107 30.8604 91.6165 30.5811L94.7268 22.4116C94.858 22.0688 95.0569 21.8975 95.3235 21.8975H96.2122C96.4788 21.8975 96.6777 22.0688 96.8088 22.4116L99.9192 30.5811C100.025 30.8604 99.9255 31 99.6208 31H98.6116C98.3323 31 98.1376 30.854 98.0276 30.562L97.3801 28.8545H94.1555L93.5081 30.562C93.398 30.854 93.2034 31 92.9241 31H91.9148ZM94.7458 27.2803H96.7898L96.009 25.2617C95.9159 25.0247 95.8588 24.8534 95.8376 24.7476C95.8207 24.6375 95.8017 24.4767 95.7805 24.2651H95.7551C95.734 24.4767 95.7128 24.6375 95.6917 24.7476C95.6747 24.8534 95.6197 25.0247 95.5266 25.2617L94.7458 27.2803ZM99.6208 23.5225C99.3035 23.5225 99.1448 23.3849 99.1448 23.1099V22.3101C99.1448 22.035 99.3035 21.8975 99.6208 21.8975H106.146C106.464 21.8975 106.622 22.035 106.622 22.3101V23.1099C106.622 23.3849 106.464 23.5225 106.146 23.5225H103.81V30.6509C103.81 30.8836 103.705 31 103.493 31H102.274C102.063 31 101.957 30.8836 101.957 30.6509V23.5225H99.6208ZM107.384 26.4487C107.384 24.9888 107.761 23.8293 108.514 22.9702C109.267 22.1112 110.342 21.6816 111.739 21.6816C113.135 21.6816 114.21 22.1112 114.963 22.9702C115.716 23.8293 116.093 24.9888 116.093 26.4487C116.093 27.9087 115.716 29.0682 114.963 29.9272C114.21 30.7863 113.135 31.2158 111.739 31.2158C110.342 31.2158 109.267 30.7863 108.514 29.9272C107.761 29.0682 107.384 27.9087 107.384 26.4487ZM109.365 26.4487C109.365 27.5067 109.553 28.3171 109.929 28.8799C110.31 29.4385 110.913 29.7178 111.739 29.7178C112.564 29.7178 113.165 29.4385 113.541 28.8799C113.922 28.3171 114.113 27.5067 114.113 26.4487C114.113 25.3908 113.922 24.5825 113.541 24.0239C113.165 23.4611 112.564 23.1797 111.739 23.1797C110.913 23.1797 110.31 23.4611 109.929 24.0239C109.553 24.5825 109.365 25.3908 109.365 26.4487ZM122.542 31C122.246 31 122.098 30.8413 122.098 30.5239V22.3735C122.098 22.0562 122.246 21.8975 122.542 21.8975H124.383C124.628 21.8975 124.804 22.0667 124.91 22.4053L126.63 27.9722C126.706 28.2134 126.759 28.4123 126.789 28.5688C126.818 28.7212 126.844 28.9032 126.865 29.1147H126.903C126.924 28.9032 126.95 28.7212 126.979 28.5688C127.009 28.4123 127.062 28.2134 127.138 27.9722L128.858 22.4053C128.964 22.0667 129.14 21.8975 129.385 21.8975H131.226C131.522 21.8975 131.67 22.0562 131.67 22.3735V30.5239C131.67 30.8413 131.522 31 131.226 31H130.261C129.965 31 129.817 30.8413 129.817 30.5239V25.2808C129.817 25.0269 129.827 24.7729 129.848 24.519H129.804L127.969 30.4858C127.864 30.8286 127.682 31 127.424 31H126.344C126.086 31 125.904 30.8286 125.799 30.4858L123.964 24.519H123.92C123.941 24.7729 123.951 25.0269 123.951 25.2808V30.5239C123.951 30.8413 123.803 31 123.507 31H122.542ZM133.416 31C133.111 31 133.012 30.8604 133.117 30.5811L136.228 22.4116C136.359 22.0688 136.558 21.8975 136.824 21.8975H137.713C137.98 21.8975 138.179 22.0688 138.31 22.4116L141.42 30.5811C141.526 30.8604 141.427 31 141.122 31H140.113C139.833 31 139.639 30.854 139.529 30.562L138.881 28.8545H135.656L135.009 30.562C134.899 30.854 134.704 31 134.425 31H133.416ZM136.247 27.2803H138.291L137.51 25.2617C137.417 25.0247 137.36 24.8534 137.339 24.7476C137.322 24.6375 137.303 24.4767 137.281 24.2651H137.256C137.235 24.4767 137.214 24.6375 137.193 24.7476C137.176 24.8534 137.121 25.0247 137.028 25.2617L136.247 27.2803ZM142.994 31C142.698 31 142.55 30.8413 142.55 30.5239V22.3735C142.55 22.0562 142.698 21.8975 142.994 21.8975H145.933C147.241 21.8975 148.195 22.1006 148.796 22.5068C149.397 22.9089 149.698 23.5648 149.698 24.4746C149.698 25.1517 149.454 25.6912 148.968 26.0933C148.481 26.4953 147.863 26.7619 147.114 26.8931V26.9058C147.52 27.0581 147.827 27.2697 148.034 27.5405C148.242 27.8114 148.411 28.0483 148.542 28.2515L149.939 30.4541C150.171 30.818 150.091 31 149.698 31H148.593C148.36 31 148.17 30.8752 148.022 30.6255L146.74 28.4863C146.6 28.2578 146.344 28.0081 145.971 27.7373C145.603 27.4622 145.237 27.3247 144.873 27.3247H144.404V30.5239C144.404 30.8413 144.255 31 143.959 31H142.994ZM144.404 25.7505H145.54C146.386 25.7505 146.987 25.6553 147.343 25.4648C147.702 25.2702 147.882 24.9634 147.882 24.5444C147.882 24.0874 147.709 23.7912 147.362 23.6558C147.019 23.5161 146.513 23.4463 145.844 23.4463H144.404V25.7505ZM151.615 27.2104V22.2466C151.615 22.0138 151.763 21.8975 152.059 21.8975H153.024C153.32 21.8975 153.468 22.0138 153.468 22.2466V27.147C153.468 28.2896 153.635 29.0047 153.969 29.2925C154.308 29.576 154.689 29.7178 155.112 29.7178C155.535 29.7178 155.914 29.576 156.248 29.2925C156.587 29.0047 156.756 28.2896 156.756 27.147V22.2466C156.756 22.0138 156.904 21.8975 157.2 21.8975H158.165C158.462 21.8975 158.61 22.0138 158.61 22.2466V27.2104C158.61 28.6916 158.296 29.7305 157.67 30.3271C157.044 30.9196 156.191 31.2158 155.112 31.2158C154.033 31.2158 153.18 30.9196 152.554 30.3271C151.928 29.7305 151.615 28.6916 151.615 27.2104ZM161.085 31C160.789 31 160.641 30.8413 160.641 30.5239V22.3735C160.641 22.0562 160.789 21.8975 161.085 21.8975H162.05C162.346 21.8975 162.494 22.0562 162.494 22.3735V30.5239C162.494 30.8413 162.346 31 162.05 31H161.085Z" fill="#0E1000"/>
</svg>
